# xmcd
#
# Track frame offsets:
#	150
#	29362
#	58370
#	95390
#	144356
#	181245
#	217148
#	254282
#
# Disc length: 3979 seconds
#
# Revision: 1
# Processed by: cddbd v1.5PL3 Copyright (c) Steve Scherf et al.
# Submitted via: audiograbber 1.82.01
#
DISCID=740f8908
DTITLE=Jeremy J. Siegel - Stocks for the Long Run - CD4
DYEAR=2002
DGENRE=Speech
TTITLE0=Chapter 8 - Technical Analysis
TTITLE1=Trending and Price Reversals
TTITLE2=Testing the Dow Jones
TTITLE3=Chapter 9 - Fund Performance
TTITLE4=Potential Pitfalls
TTITLE5=Chapter 10 - Structuring a Protfolio
TTITLE6=International Diversification
TTITLE7=Return Enhancing Stategies
EXTD=
EXTT0=
EXTT1=
EXTT2=
EXTT3=
EXTT4=
EXTT5=
EXTT6=
EXTT7=
PLAYORDER=
